<?xml version="1.0" standalone="no"?><!DOCTYPE svg PUBLIC "-//W3C//DTD SVG 1.1//EN" "http://www.w3.org/Graphics/SVG/1.1/DTD/svg11.dtd"><svg t="1781751518816" class="icon" viewBox="0 0 1024 1024" version="1.1" xmlns="http://www.w3.org/2000/svg" p-id="4902" xmlns:xlink="http://www.w3.org/1999/xlink" width="200" height="200"><path d="M210.22552317 41.01176535c18.55850066-10.60485751 42.220589-12.12930579 61.90585578-3.44657869 14.71423981 6.03151271 25.84934021 17.89569707 37.77980492 27.97031171 49.37886783 42.61827117 98.36005351 85.83306557 147.93776242 128.18621528h104.12644477c49.57770891-42.41943008 98.49261422-85.50166377 147.87148206-128.11993493 11.99674507-10.07461465 23.13184546-21.87251863 37.91236565-28.03659206 19.08874354-8.41760565 42.02174793-7.29083955 60.31512715 2.65121437 21.47483648 11.06882003 36.38791737 34.00182443 37.3158424 58.19415565 1.3256072 17.56429527-4.97102697 35.32743163-15.97356665 48.91490531-9.74321285 10.80369859-21.40855613 19.68526677-32.21225472 29.36219927-6.89315739 5.70011091-13.12351118 12.32814687-20.74575252 17.10033275 30.62152609 0 61.17677182-0.33140179 91.79829792 0.19884108 40.29845858 1.06048575 79.53643141 18.88990245 107.30790203 48.119541 29.2959189 28.76567603 45.99856949 69.32925605 45.93228914 110.29051822 0.13256073 140.38180144 0 280.82988322 0.06628037 421.21168466-0.13256073 21.20971504 1.06048575 42.75083188-3.64541978 63.62914514-8.61644674 42.68455152-37.3158424 79.73527248-73.77004013 102.73455722a157.08445203 157.08445203 0 0 1-83.77837441 22.99928475H190.01001353c-22.00507936-0.13256073-44.34156051 1.12676611-66.01523808-3.71170014-41.55778541-8.3513253-77.68058134-35.79139413-100.74614645-70.72114358a156.75305023 156.75305023 0 0 1-24.92141517-86.69471023v-416.24065771c0.13256073-21.40855613-1.19304647-42.94967296 3.18145726-63.96054692 13.2560719-68.53389173 76.28869379-124.40823479 146.28075342-127.45713133 31.88085293-0.99420539 63.82798621-0.26512144 95.70883914-0.39768216-15.04564161-10.86997897-28.23543315-23.99349014-42.4194301-35.92395485a71.25138647 71.25138647 0 0 1-26.57842415-59.45348248c0.92792503-23.59580798 15.11192197-46.06484987 35.79139413-57.39879133m-16.90149167 287.12651737c-27.17494739 4.83846624-50.37307323 26.31330272-57.92903422 52.75916619a99.0228571 99.0228571 0 0 0-3.04889653 28.10287242c0.13256073 115.26154518-0.06628035 230.52309037 0.06628035 345.8509159-0.53024288 31.35061005 21.14343469 61.0442111 50.63819467 71.05254539 10.53857716 3.84426085 21.87251863 3.91054121 32.87505831 3.97682157 198.31083565-0.13256073 396.68795165 0.06628035 594.9987873-0.06628036 29.09707781 1.12676611 57.06738954-16.96777203 69.32925604-43.08223368 7.48968062-14.97936125 7.3571199-32.01341364 7.09199847-48.38466244v-322.1225472c0-11.79790399 0.39768215-23.92720978-2.98261619-35.3274316a76.08985271 76.08985271 0 0 0-47.72185883-50.04167144c-12.65954867-4.63962516-26.44586345-3.91054121-39.70193536-3.97682158H227.85609879c-11.4665022 0-23.06556511-0.39768215-34.46578693 1.25932683z" fill="#1296DB" p-id="4903"></path><path d="M313.55660364 438.89276347c18.95618282-1.92213043 38.64144959 4.24194301 53.09056797 16.57008987 16.10612736 13.2560719 25.31909733 33.80298335 25.58421877 54.54873588 0.46396251 25.12025625 0.13256073 50.30679286 0.13256071 75.42704911 0 16.57008987-4.37450373 33.40530119-14.64795944 46.52881237a71.18510611 71.18510611 0 0 1-62.76750046 28.1691528 71.11882576 71.11882576 0 0 1-57.00110918-36.58675845c-8.81528781-15.11192197-9.54437177-33.00761904-9.27925033-49.97539107 0.53024288-24.3911723-1.3256072-48.91490531 1.12676611-73.23979725a71.58278827 71.58278827 0 0 1 63.76170585-61.44189326z m378.5934135 0a71.51650791 71.51650791 0 0 1 78.60850637 68.66645244c1.06048575 23.59580798 0.13256073 47.19161597 0.53024288 70.78742396 0.13256073 16.57008987-1.85585006 33.80298335-11.00253967 48.05326063-13.2560719 22.07135971-39.23797282 35.65883341-64.95475232 33.80298336a71.25138647 71.25138647 0 0 1-56.1394645-32.34481543c-10.27345573-15.24448269-12.26186651-34.00182443-11.797904-51.8975215 0.46396251-24.25861157-0.86164467-48.51722316 0.79536431-72.70955439 2.38609294-33.14017975 30.95292789-61.50817362 63.96054693-64.29194872z" fill="#1296DB" p-id="4904"></path></svg>