<?xml version="1.0" standalone="no"?><!DOCTYPE svg PUBLIC "-//W3C//DTD SVG 1.1//EN" "http://www.w3.org/Graphics/SVG/1.1/DTD/svg11.dtd"><svg t="1782561803744" class="icon" viewBox="0 0 1024 1024" version="1.1" xmlns="http://www.w3.org/2000/svg" p-id="2551" xmlns:xlink="http://www.w3.org/1999/xlink" width="200" height="200"><path d="M265.197736 703.07363a325.376 363.9296 40.67 1 0 474.346828-552.063494 325.376 363.9296 40.67 1 0-474.346828 552.063494Z" fill="#DC4B86" p-id="2552"></path><path d="M739.5328 151.04c-117.4016-100.864-294.4-93.4912-424.96 7.8336a435.2 435.2 0 0 0 138.9056 616.0384c105.3696 3.4304 216.2688-43.3664 295.68-135.7824 130.9696-152.4736 126.6688-370.9952-9.6256-488.0896z" fill="#FE7DA0" p-id="2553"></path><path d="M608.5632 744.0896L174.08 367.0016c-34.4576 123.4944-3.6864 254.464 91.392 336.128 94.0544 81.0496 226.816 92.2112 343.0912 40.96z" fill="#FD8F00" p-id="2554"></path><path d="M241.7152 425.8816a434.8416 434.8416 0 0 0 211.7632 349.0304 342.272 342.272 0 0 0 59.5456-3.328l9.728-1.5872h0.3072a352.1536 352.1536 0 0 0 37.888-8.704l1.6384-0.4608c2.2016-0.6144 4.352-1.3312 6.5024-1.9968l4.1984-1.3312 5.5808-1.8944 5.12-1.792 5.12-1.792c1.9968-0.768 3.9424-1.4848 5.888-2.304l4.3008-1.6896 6.8096-2.8672 2.4064-1.0752z" fill="#FDCB50" p-id="2555"></path><path d="M165.12 405.4016l413.696 350.2592a377.1904 377.1904 0 0 0 42.6496-17.5104L175.616 360.6016a386.048 386.048 0 0 0-10.496 44.8z" fill="#D2DCFD" p-id="2556"></path><path d="M241.2032 416.1536a443.904 443.904 0 0 0 5.9904 58.7264l331.6224 280.7808h0.6144c2.9696-1.024 5.9904-2.0992 8.96-3.2256l1.6896-0.6144 7.6288-2.9696 3.2768-1.3312 4.096-1.7408c5.5296-2.3552 10.9568-5.12 16.384-7.4752z" fill="#FFFFFF" p-id="2557"></path><path d="M464.2304 790.3744a317.44 317.44 0 0 1-209.0496-75.6224C185.9072 655.36 146.688 569.2416 144.7936 472.6272S178.0736 281.6 243.9168 204.8s154.4704-125.4912 249.6-138.24 186.7264 13.1584 256 72.704c142.5408 122.4192 147.6096 351.0784 11.3152 509.696-79.616 92.8256-190.1056 141.4144-296.6016 141.4144z m76.4928-696.064a325.5808 325.5808 0 0 0-43.1616 2.8672c-87.6544 11.5712-169.472 56.9856-230.4 128s-93.44 158.72-91.6992 246.9888 37.12 165.6832 99.6864 219.4432c129.6896 111.4112 337.0496 83.456 462.336-62.3616 125.2352-145.7664 121.6512-354.9696-8.0384-466.3808a286.0544 286.0544 0 0 0-188.7232-68.5568z m208.4352 544.8192z" fill="#042A76" p-id="2558"></path><path d="M79.3088 787.4048l210.432-192.768a22.528 22.528 0 0 1 30.1056-0.3584l38.0416 33.28a22.5792 22.5792 0 0 1 3.9424 29.44l-159.6416 240.64a22.528 22.528 0 0 1-34.048 4.1984l-88.832-81.2032a22.4768 22.4768 0 0 1 0-33.2288z" fill="#28A2CC" p-id="2559"></path><path d="M319.8464 594.2784a22.528 22.528 0 0 0-30.1056 0.3584l-2.3552 2.0992a436.0704 436.0704 0 0 0 57.2928 86.1184l17.152-25.856a22.5792 22.5792 0 0 0-3.9424-29.44z" fill="#60CEFF" p-id="2560"></path><path d="M183.3472 923.2896a37.7344 37.7344 0 0 1-25.6-10.24L68.9664 832a37.9392 37.9392 0 0 1 0-55.9616l210.432-192.768a37.888 37.888 0 0 1 50.5856-0.5632l38.0416 33.3312a37.9904 37.9904 0 0 1 6.656 49.4592L215.04 906.24a37.7856 37.7856 0 0 1-26.9824 16.6912 35.84 35.84 0 0 1-4.7104 0.3584zM304.9472 604.16a7.1168 7.1168 0 0 0-5.12 1.8944L89.7024 798.72a7.1168 7.1168 0 0 0 0 10.5984L178.5344 890.88a7.2704 7.2704 0 0 0 10.9056-1.536l159.6416-240.64a7.2192 7.2192 0 0 0-1.28-9.4208l-38.0416-33.28a7.0656 7.0656 0 0 0-4.8128-1.8432z m-225.6384 183.2448z" fill="#042A76" p-id="2561"></path><path d="M854.5792 770.7648m-91.9552 0a91.9552 91.9552 0 1 0 183.9104 0 91.9552 91.9552 0 1 0-183.9104 0Z" fill="#6864F8" p-id="2562"></path><path d="M854.5792 678.8096a91.8528 91.8528 0 0 0-73.1648 147.5072A433.2032 433.2032 0 0 0 943.36 747.52a92.16 92.16 0 0 0-88.7808-68.7104z" fill="#BC9BF4" p-id="2563"></path><path d="M854.5792 878.08a107.52 107.52 0 1 1 107.52-107.52 107.52 107.52 0 0 1-107.52 107.52z m0-183.9104a76.8 76.8 0 1 0 76.8 76.8 76.8 76.8 0 0 0-76.8-76.8z" fill="#042A76" p-id="2564"></path></svg>