<?xml version="1.0" standalone="no"?><!DOCTYPE svg PUBLIC "-//W3C//DTD SVG 1.1//EN" "http://www.w3.org/Graphics/SVG/1.1/DTD/svg11.dtd"><svg t="1782561798233" class="icon" viewBox="0 0 1024 1024" version="1.1" xmlns="http://www.w3.org/2000/svg" p-id="2373" xmlns:xlink="http://www.w3.org/1999/xlink" width="200" height="200"><path d="M315.0336 459.1104L218.9824 256A131.2256 131.2256 0 0 1 337.92 68.5056h348.672a131.2256 131.2256 0 0 1 119.4496 185.6l-93.2864 204.2368L605.6448 409.6l92.9792-204.288a13.4656 13.4656 0 0 0-12.288-19.0976H337.92a13.5168 13.5168 0 0 0-12.2368 19.2512l95.7952 203.3664z" fill="#DC4B86" p-id="2374"></path><path d="M596.992 186.2144h89.344a13.4656 13.4656 0 0 1 12.288 19.0976L605.6448 409.6l107.1104 48.7936 93.0304-204.2368A130.7648 130.7648 0 0 0 799.4368 133.12a423.1168 423.1168 0 0 0-202.4448 53.0944z" fill="#FE7DA0" p-id="2375"></path><path d="M307.712 479.5392l-102.4-217.2416A146.5344 146.5344 0 0 1 337.92 53.1456h348.672a146.5344 146.5344 0 0 1 133.4272 207.3088L720.384 478.6688l-135.0656-61.44 98.1504-215.6032h-343.04l101.4784 214.528zM337.92 83.8656a115.8656 115.8656 0 0 0-105.0624 165.3248l89.7024 189.44 78.6432-37.12-89.4464-189.44a28.8256 28.8256 0 0 1 26.112-40.96h348.672a28.8768 28.8768 0 0 1 26.3168 40.96l-86.8864 189.9008 79.2064 35.84 86.6304-190.3104a115.8656 115.8656 0 0 0-105.472-163.84z" fill="#042A76" p-id="2376"></path><path d="M323.3792 958.464h368.9472a69.0176 69.0176 0 0 0 43.2128-15.36 364.032 364.032 0 1 0-455.68 0 69.2736 69.2736 0 0 0 43.52 15.36z" fill="#6864F8" p-id="2377"></path><path d="M871.7824 650.24a363.52 363.52 0 0 0-404.9408-352.512 424.96 424.96 0 0 0 191.2832 660.48h34.2016a69.0176 69.0176 0 0 0 43.2128-15.36A363.52 363.52 0 0 0 871.7824 650.24z" fill="#BC9BF4" p-id="2378"></path><path d="M507.8528 659.3024m-210.0736 0a210.0736 210.0736 0 1 0 420.1472 0 210.0736 210.0736 0 1 0-420.1472 0Z" fill="#D2DCFD" p-id="2379"></path><path d="M692.3264 973.824H323.3792a84.8384 84.8384 0 0 1-52.992-18.7392 379.392 379.392 0 1 1 474.7776 0 84.6336 84.6336 0 0 1-52.8384 18.7392z m-184.32-663.1424a348.5696 348.5696 0 0 0-218.368 620.4928 54.1696 54.1696 0 0 0 33.7408 11.9296h368.9472a53.9648 53.9648 0 0 0 33.6384-11.8272 348.928 348.928 0 0 0-209.92-620.4928c-2.6112-0.1024-5.4272-0.1024-8.2432-0.1024z" fill="#042A76" p-id="2380"></path><path d="M507.8528 449.2288a209.0496 209.0496 0 0 0-124.9792 41.216 424.96 424.96 0 0 0 129.7408 378.88 209.92 209.92 0 0 0-4.7616-419.84z" fill="#FFFFFF" p-id="2381"></path><path d="M400.896 733.0816a15.36 15.36 0 0 1-15.36-15.36v-125.9008a15.36 15.36 0 0 1 30.72 0v125.9008a15.36 15.36 0 0 1-15.36 15.36z" fill="#042A76" p-id="2382"></path><path d="M464.7936 730.4704a15.36 15.36 0 0 1-10.5472-4.1984l-63.8976-60.3136a15.36 15.36 0 0 1-4.8128-11.1616v-8.192a15.36 15.36 0 0 1 5.7856-11.7248l63.8976-51.2a15.36 15.36 0 1 1 19.1488 24.0128L419.84 651.3664l55.7056 52.5824a15.36 15.36 0 0 1-10.5472 26.5216zM573.44 730.4704a76.8 76.8 0 1 1 49.2032-136.2944 15.36 15.36 0 0 1-19.6096 23.6544 46.08 46.08 0 1 0 14.08 51.2H573.44a15.36 15.36 0 0 1 0-30.72h61.44a15.36 15.36 0 0 1 15.36 15.36 77.056 77.056 0 0 1-76.8 76.8z" fill="#042A76" p-id="2383"></path></svg>