<?xml version="1.0" standalone="no"?><!DOCTYPE svg PUBLIC "-//W3C//DTD SVG 1.1//EN" "http://www.w3.org/Graphics/SVG/1.1/DTD/svg11.dtd"><svg t="1782561790795" class="icon" viewBox="0 0 1024 1024" version="1.1" xmlns="http://www.w3.org/2000/svg" p-id="2180" xmlns:xlink="http://www.w3.org/1999/xlink" width="200" height="200"><path d="M817.9712 662.9376a28.2112 28.2112 0 0 1-24.8832-14.8992l-126.1568-236.2368a22.4768 22.4768 0 0 0-15.9744-11.5712l-51.5072-9.2672a78.848 78.848 0 0 1-53.9136-37.376L465.92 219.8528a28.16 28.16 0 1 1 48.384-28.7744L593.92 324.8128a22.4256 22.4256 0 0 0 15.36 10.7008l51.5584 9.2672A78.4896 78.4896 0 0 1 716.8 385.28l126.208 236.2368a28.16 28.16 0 0 1-24.832 41.4208z" fill="#FDCB50" p-id="2181"></path><path d="M817.9712 678.2976a43.4176 43.4176 0 0 1-38.4-22.9888l-126.208-236.2368a7.168 7.168 0 0 0-5.12-3.7376l-51.5072-9.2672A94.208 94.208 0 0 1 532.48 361.472L452.8128 227.6864a43.52 43.52 0 0 1 74.8032-44.4928l79.5136 133.7856a7.3216 7.3216 0 0 0 5.12 3.4304l51.5584 9.2672a93.6448 93.6448 0 0 1 66.56 48.384l125.952 236.3392a43.4688 43.4688 0 0 1-38.3488 64z m-327.68-485.632a12.3392 12.3392 0 0 0-6.5024 1.792 12.8512 12.8512 0 0 0-4.5056 17.5616l79.5648 133.7344a63.5392 63.5392 0 0 0 43.4176 30.1056l51.5072 9.216a37.888 37.888 0 0 1 26.7264 19.4048l126.1568 236.2368a12.8 12.8 0 0 0 23.552-2.304 12.7488 12.7488 0 0 0-0.9728-9.7792l-126.1568-236.0832a63.3856 63.3856 0 0 0-44.8512-32.6656l-51.5584-9.216a38.0928 38.0928 0 0 1-25.9072-17.8688L501.1968 198.912a12.6976 12.6976 0 0 0-11.008-6.2464z" fill="#042A76" p-id="2182"></path><path d="M208.0256 858.4192h93.0816v61.0304A19.5584 19.5584 0 0 1 281.6 939.008H227.584a19.5584 19.5584 0 0 1-19.5584-19.5584v-61.0304zM719.8208 858.4192h93.0816v61.0304a19.5584 19.5584 0 0 1-19.5584 19.5584h-53.9648a19.5584 19.5584 0 0 1-19.5584-19.5584v-61.0304z" fill="#DC4B86" p-id="2183"></path><path d="M281.6 954.368H227.584a34.9696 34.9696 0 0 1-34.9184-34.9184v-61.0304a15.36 15.36 0 0 1 15.36-15.36h93.0816a15.36 15.36 0 0 1 15.36 15.36v61.0304A34.9696 34.9696 0 0 1 281.6 954.368z m-58.2144-80.5888v45.6704a4.1984 4.1984 0 0 0 4.1984 4.1984H281.6a4.1984 4.1984 0 0 0 4.1984-4.1984v-45.6704zM793.2928 954.368h-53.9136a34.9696 34.9696 0 0 1-34.9184-34.9184v-61.0304a15.36 15.36 0 0 1 15.36-15.36h93.0816a15.36 15.36 0 0 1 15.36 15.36v61.0304a34.9696 34.9696 0 0 1-34.9696 34.9184z m-58.112-80.5888v45.6704a4.1984 4.1984 0 0 0 4.1984 4.1984h53.9136a4.2496 4.2496 0 0 0 4.2496-4.1984v-45.6704z" fill="#042A76" p-id="2184"></path><path d="M805.5808 195.8912s-11.0592 18.1248 12.3904 173.056 28.5184 185.5488 28.5184 185.5488H896v293.7856a33.9968 33.9968 0 0 1-33.9968 33.9968h-171.264v-179.6608l74.0352-116.5824s-43.4176-247.7568-33.1776-373.76c42.5472-52.7872 73.984-16.384 73.984-16.384z" fill="#60CEFF" p-id="2185"></path><path d="M899.2768 758.8864a110.7968 110.7968 0 0 1-65.792 74.1888c-30.4128 37.3248-26.112 49.2032-26.112 49.2032h55.4496a33.9968 33.9968 0 0 0 33.9968-33.0752z" fill="#32B3E0" p-id="2186"></path><path d="M861.9008 897.6384h-171.1616a15.36 15.36 0 0 1-15.36-15.36v-179.6608a15.36 15.36 0 0 1 2.3552-8.192l70.912-111.6672c-6.656-39.2192-41.8816-254.5664-32.3584-371.712a15.36 15.36 0 0 1 3.328-8.3968c18.1248-22.4256 37.4272-33.9968 57.344-34.304a54.1184 54.1184 0 0 1 40.2432 17.5104 15.36 15.36 0 0 1 2.5088 16.128c-0.8192 3.1232-6.6048 32.4608 13.4144 164.6592 15.7696 104.192 23.296 152.32 26.4704 172.4928H896a15.36 15.36 0 0 1 15.36 15.36v293.7856a49.4592 49.4592 0 0 1-49.4592 49.3568z m-155.8016-30.72h155.8016a18.6368 18.6368 0 0 0 18.6368-18.6368V569.856h-34.048a15.36 15.36 0 0 1-15.36-12.8c0-0.3072-5.4272-32.5632-28.6208-185.8048-12.6464-83.5072-17.4592-142.0288-14.08-169.2672a21.2992 21.2992 0 0 0-11.52-2.9184c-9.3184 0.3072-19.8656 6.9632-30.72 19.3024-8.4992 124.0576 32.9216 362.5472 33.3824 365.0048a15.0528 15.0528 0 0 1-2.2016 10.8544l-71.68 112.896z m112.64-662.9888z m0 0z m0 0z" fill="#042A76" p-id="2187"></path><path d="M134.8096 792.0128m45.1072 0l635.0848 0q45.1072 0 45.1072 45.1072l0 0q0 45.1072-45.1072 45.1072l-635.0848 0q-45.1072 0-45.1072-45.1072l0 0q0-45.1072 45.1072-45.1072Z" fill="#6864F8" p-id="2188"></path><path d="M688.64 857.8048a433.1008 433.1008 0 0 0 169.4208-34.2528 45.1584 45.1584 0 0 0-43.0592-31.5392H458.7008a432.9984 432.9984 0 0 0 229.9392 65.792z" fill="#BC9BF4" p-id="2189"></path><path d="M815.0016 897.6384h-634.88a60.5184 60.5184 0 0 1 0-120.9856h634.88a60.5184 60.5184 0 0 1 0 120.9856z m-634.88-90.2656a29.7984 29.7984 0 0 0 0 59.5456h634.88a29.7984 29.7984 0 0 0 0-59.5456z" fill="#042A76" p-id="2190"></path><path d="M386.2528 674.4576l380.1088-26.112v38.6048l-385.792 28.3648 5.6832-40.8576z" fill="#FE7DA0" p-id="2191"></path><path d="M380.5696 730.6752a15.36 15.36 0 0 1-15.36-17.4592l5.6832-40.96a15.36 15.36 0 0 1 14.1312-13.2096l380.1088-26.112a15.36 15.36 0 0 1 16.4352 15.36v38.6048a15.36 15.36 0 0 1-14.2336 15.36l-385.792 28.416z m19.1488-41.728l-1.3312 9.6768 352.6144-25.9584v-7.8336z" fill="#042A76" p-id="2192"></path><path d="M500.48 748.5952l136.0384-10.5984a30.72 30.72 0 0 0 27.1872-22.528l11.9808-44.4928a12.3392 12.3392 0 0 0-12.7488-15.36l-212.0704 14.592a12.3392 12.3392 0 0 0-9.3696 19.2512l31.2832 46.08a30.72 30.72 0 0 0 27.6992 13.056z" fill="#FDCB50" p-id="2193"></path><path d="M498.1248 764.0576a46.08 46.08 0 0 1-38.0416-20.1216l-31.2832-46.08a27.7504 27.7504 0 0 1 20.992-43.264l212.0704-14.592a27.7504 27.7504 0 0 1 28.672 34.8672l-11.9808 44.4416a46.08 46.08 0 0 1-40.96 33.8432L501.76 763.904q-1.8432 0.1536-3.6352 0.1536z m-40.96-79.0528l28.3136 41.6256a15.36 15.36 0 0 0 13.7728 6.656l136.0896-10.5984a15.36 15.36 0 0 0 13.568-11.2128l10.8544-40.3968z" fill="#042A76" p-id="2194"></path><path d="M254.5664 679.0656m-184.7808 0a184.7808 184.7808 0 1 0 369.5616 0 184.7808 184.7808 0 1 0-369.5616 0Z" fill="#DC4B86" p-id="2195"></path><path d="M259.584 494.4384a434.6368 434.6368 0 0 0 159.1808 269.4144A184.7296 184.7296 0 0 0 259.584 494.4384z" fill="#FE7DA0" p-id="2196"></path><path d="M254.5664 879.2064a200.1408 200.1408 0 1 1 200.1408-200.1408 200.3456 200.3456 0 0 1-200.1408 200.1408z m0-369.5104a169.4208 169.4208 0 1 0 169.4208 169.3696 169.6256 169.6256 0 0 0-169.4208-169.3696z" fill="#042A76" p-id="2197"></path><path d="M254.5664 679.0656m-126.0032 0a126.0032 126.0032 0 1 0 252.0064 0 126.0032 126.0032 0 1 0-252.0064 0Z" fill="#D2DCFD" p-id="2198"></path><path d="M373.0432 721.92a126.0032 126.0032 0 0 0-98.9696-167.3728A434.8416 434.8416 0 0 0 373.0432 721.92z" fill="#FFFFFF" p-id="2199"></path><path d="M254.5664 679.0656m-89.6 0a89.6 89.6 0 1 0 179.2 0 89.6 89.6 0 1 0-179.2 0Z" fill="#6864F8" p-id="2200"></path><path d="M290.048 596.7872a433.152 433.152 0 0 0 53.7088 90.7776c0-2.7648 0.4096-5.632 0.4096-8.4992a89.6 89.6 0 0 0-54.1184-82.2784z" fill="#BC9BF4" p-id="2201"></path><path d="M822.528 779.3152a28.672 28.672 0 0 1-7.9872-1.1264 28.16 28.16 0 0 1-19.0464-34.9696l107.52-364.5952a22.528 22.528 0 0 0-3.2768-19.456l-30.2592-42.7008a79.0016 79.0016 0 0 1-12.2368-64.4608l37.0176-151.1424a28.16 28.16 0 0 1 54.7328 13.4144l-37.0688 151.1424a22.784 22.784 0 0 0 3.5328 18.4832l30.2592 42.7008a78.6432 78.6432 0 0 1 11.3152 67.9424l-107.52 364.544a28.16 28.16 0 0 1-26.9824 20.224z" fill="#FDCB50" p-id="2202"></path><path d="M822.528 794.6752a43.4688 43.4688 0 0 1-41.7792-55.808l107.52-364.5952a7.168 7.168 0 0 0-1.0752-6.2464l-30.2592-42.7008a94.0544 94.0544 0 0 1-14.592-76.8L879.1552 97.28A43.5712 43.5712 0 0 1 931.84 65.3312 43.4688 43.4688 0 0 1 963.6864 117.76L926.72 269.056a7.168 7.168 0 0 0 1.1264 5.9392l30.2592 42.752a93.696 93.696 0 0 1 13.5168 81.1008l-107.52 364.5952a43.776 43.776 0 0 1-41.5744 31.232zM921.6 94.7712a12.8512 12.8512 0 0 0-12.4416 9.7792l-37.2224 151.1424a63.5392 63.5392 0 0 0 9.8816 51.8656l30.2592 42.7008a37.7856 37.7856 0 0 1 5.4272 32.7168L810.24 747.52a12.8 12.8 0 0 0 8.6528 15.872 12.9536 12.9536 0 0 0 15.872-8.6528l107.52-364.5952a63.3344 63.3344 0 0 0-9.1136-54.7328l-30.2592-42.7008a38.0416 38.0416 0 0 1-5.888-30.72l37.0176-151.1424a12.7488 12.7488 0 0 0-12.3904-15.872z" fill="#042A76" p-id="2203"></path><path d="M627.456 205.9264l116.7872-109.2608a15.36 15.36 0 0 1 22.3744 1.5872l54.6304 67.4816a15.36 15.36 0 0 1-3.6864 22.5792l-152.7296 97.28a15.36 15.36 0 0 1-19.456-2.4576l-19.9168-21.504a39.3728 39.3728 0 0 1 1.9968-55.7056z" fill="#BC9BF4" p-id="2204"></path><path d="M656.64 303.2064a30.72 30.72 0 0 1-22.528-9.7792l-19.712-21.504a54.8352 54.8352 0 0 1 2.56-77.3632l116.7872-109.2608a30.72 30.72 0 0 1 44.8 3.1232l54.6304 67.5328a30.72 30.72 0 0 1-7.3728 45.1584l-152.7296 97.28a30.72 30.72 0 0 1-16.4352 4.8128z m-18.688-86.0672a24.064 24.064 0 0 0-1.2288 33.8944l19.9168 21.4528 152.6784-97.28-54.6304-67.328z" fill="#042A76" p-id="2205"></path></svg>