<?xml version="1.0" standalone="no"?><!DOCTYPE svg PUBLIC "-//W3C//DTD SVG 1.1//EN" "http://www.w3.org/Graphics/SVG/1.1/DTD/svg11.dtd"><svg t="1782561840331" class="icon" viewBox="0 0 1024 1024" version="1.1" xmlns="http://www.w3.org/2000/svg" p-id="3447" xmlns:xlink="http://www.w3.org/1999/xlink" width="200" height="200"><path d="M819.2 457.4208a197.888 197.888 0 1 0-268.8-277.1456 797.1328 797.1328 0 0 1-101.888 127.3856L294.5536 461.6192a664.832 664.832 0 0 1-122.2656 98.4064 197.8368 197.8368 0 1 0 243.1488 308.6848 200.704 200.704 0 0 0 25.6-31.488A794.9312 794.9312 0 0 1 542.72 709.7856l153.9584-153.9584A666.88 666.88 0 0 1 819.2 457.4208z" fill="#DC4B86" p-id="3448"></path><path d="M575.7952 148.736a197.888 197.888 0 0 0-25.6 31.5392A797.1328 797.1328 0 0 1 448.512 307.6608l-46.4384 46.4896a435.2 435.2 0 0 0 204.3904 291.84l90.2144-90.2144A666.88 666.88 0 0 1 819.2 457.4208a197.888 197.888 0 1 0-243.2-308.6848z" fill="#FE7DA0" p-id="3449"></path><path d="M902.1952 222.9248a175.872 175.872 0 0 0-167.0144 294.9632 9.216 9.216 0 0 0 1.024 0.9728 613.4784 613.4784 0 0 1 82.7904-61.44 197.7856 197.7856 0 0 0 83.2-234.496z" fill="#68CCD2" p-id="3450"></path><path d="M259.9936 495.6672l-0.768-0.768a618.7008 618.7008 0 0 1-87.04 65.1264A197.8368 197.8368 0 0 0 87.04 789.0432a175.8208 175.8208 0 0 0 172.8-293.376z" fill="#28A2CC" p-id="3451"></path><path d="M735.1808 269.2096a175.872 175.872 0 0 0 46.08-167.2192 197.6832 197.6832 0 0 0-231.2192 78.2848A870.4 870.4 0 0 1 485.1712 267.776l1.28 1.4336a175.9232 175.9232 0 0 0 248.7296 0z" fill="#B1D952" p-id="3452"></path><path d="M259.9936 744.3456a175.8208 175.8208 0 0 0-44.6464 172.9024 197.7344 197.7344 0 0 0 200.0896-48.5376 200.704 200.704 0 0 0 25.6-31.488 865.28 865.28 0 0 1 68.6592-91.8016l-1.024-1.0752a175.9232 175.9232 0 0 0-248.6784 0z" fill="#92B705" p-id="3453"></path><path d="M819.2 457.4208c3.4816-2.1504 6.912-4.4544 10.24-6.8608a338.432 338.432 0 0 0-275.5072-275.5072c-1.2288 1.7408-2.4576 3.4304-3.584 5.12a797.1328 797.1328 0 0 1-101.8368 127.488L294.5536 461.6192a664.832 664.832 0 0 1-122.2656 98.4064c-3.5328 2.1504-6.912 4.4544-10.24 6.8608a338.432 338.432 0 0 0 275.5584 275.5072l3.584-5.12a794.9312 794.9312 0 0 1 101.5296-127.488l153.9584-153.9584A666.88 666.88 0 0 1 819.2 457.4208z" fill="#FD8F00" p-id="3454"></path><path d="M735.1808 269.2096a337.2544 337.2544 0 0 0-181.4016-94.1568c-1.2288 1.7408-2.4576 3.4304-3.584 5.12a797.1328 797.1328 0 0 1-101.6832 127.488l-46.4384 46.4896a435.2 435.2 0 0 0 204.3904 291.84l90.2144-90.2144A666.88 666.88 0 0 1 819.2 457.4208c3.4816-2.1504 6.912-4.4544 10.24-6.8608a336.8448 336.8448 0 0 0-94.2592-181.3504z" fill="#FDCB50" p-id="3455"></path><path d="M275.456 942.08h-7.0144a213.1968 213.1968 0 0 1-152.4736-354.4576 216.0128 216.0128 0 0 1 48.2816-40.4992A645.632 645.632 0 0 0 283.6992 450.56l153.9584-153.6A776.8064 776.8064 0 0 0 537.6 171.8272a218.624 218.624 0 0 1 27.5968-33.9456 214.2208 214.2208 0 0 1 157.9008-62.3104A213.1968 213.1968 0 0 1 875.52 430.08a216.0128 216.0128 0 0 1-48.2816 40.4992L819.2 457.4208l8.0384 13.1072a646.2976 646.2976 0 0 0-119.5008 96.1536l-153.9072 153.9584a771.2256 771.2256 0 0 0-99.6864 124.9792 211.456 211.456 0 0 1-27.648 33.9456A214.016 214.016 0 0 1 275.456 942.08z m440.32-835.84a182.8864 182.8864 0 0 0-152.576 82.432 804.3008 804.3008 0 0 1-103.8336 129.8432L305.408 472.4736a675.4304 675.4304 0 0 1-125.0816 100.6592 185.0368 185.0368 0 0 0-41.4208 34.7136 182.4768 182.4768 0 1 0 289.3312 220.928 806.4512 806.4512 0 0 1 103.6288-129.8432L686.08 544.9728a676.7616 676.7616 0 0 1 124.928-100.6592A182.5792 182.5792 0 0 0 853.2992 168.96 181.0432 181.0432 0 0 0 721.92 106.2912c-2.2016-0.1024-4.3008-0.1024-6.4-0.1024z" fill="#042A76" p-id="3456"></path><path d="M444.4672 859.1872l-9.6256-1.6384a353.792 353.792 0 0 1-288-288.0512l-1.6896-9.5744 7.9872-5.632c4.352-3.0208 7.7824-5.12 11.1104-7.3728A645.632 645.632 0 0 0 283.6992 450.56l153.9584-153.6A776.8064 776.8064 0 0 0 537.6 171.8272c0.9728-1.4848 2.048-2.9696 3.072-4.4544l6.4-9.1136 9.5744 1.6896a353.6384 353.6384 0 0 1 288.0512 288l1.6384 9.6256-7.936 5.5808c-4.352 3.072-7.7824 5.12-11.1104 7.3728a646.2976 646.2976 0 0 0-119.5008 96.1536l-153.9072 153.9584a773.9904 773.9904 0 0 0-99.6864 124.9792c-1.024 1.536-2.048 3.0208-3.1232 4.5056zM179.2 574.0032a323.0208 323.0208 0 0 0 251.4944 251.4432 801.6384 801.6384 0 0 1 101.4272-126.5152L686.08 544.9728a676.7616 676.7616 0 0 1 124.928-100.6592l1.3312-0.8192a323.1744 323.1744 0 0 0-251.4944-251.4944 798.72 798.72 0 0 1-101.4784 126.5152L305.408 472.4736a675.4304 675.4304 0 0 1-125.0816 100.6592z" fill="#042A76" p-id="3457"></path><path d="M556.560897 278.387847m37.869245 37.869245l91.776804 91.776803q37.869245 37.869245 0 75.738491l0.036203-0.036204q-37.869245 37.869245-75.73849 0l-91.776803-91.776804q-37.869245-37.869245 0-75.73849l-0.036204 0.036204q37.869245-37.869245 75.73849 0Z" fill="#FFFFFF" p-id="3458"></path><path d="M352.749936 484.777532m37.869245 37.869245l91.776803 91.776803q37.869245 37.869245 0 75.73849l0.036204-0.036204q-37.869245 37.869245-75.73849 0l-91.776804-91.776803q-37.869245-37.869245 0-75.73849l-0.036203 0.036204q37.869245-37.869245 75.73849 0Z" fill="#D2DCFD" p-id="3459"></path></svg>