<?xml version="1.0" standalone="no"?><!DOCTYPE svg PUBLIC "-//W3C//DTD SVG 1.1//EN" "http://www.w3.org/Graphics/SVG/1.1/DTD/svg11.dtd"><svg t="1782561808887" class="icon" viewBox="0 0 1024 1024" version="1.1" xmlns="http://www.w3.org/2000/svg" p-id="2732" xmlns:xlink="http://www.w3.org/1999/xlink" width="200" height="200"><path d="M340.8384 275.0976l29.952-210.8928s143.36 41.6768 287.6416 0C719.616 143.616 711.68 169.6256 711.68 169.6256l-87.04 200.4992-178.3808 29.5424z" fill="#28A2CC" p-id="2733"></path><path d="M394.24 338.2784l51.968 61.44L624.64 370.1248l87.04-200.4992s3.2768-10.9056-11.008-40.0896A416.7168 416.7168 0 0 0 394.24 338.2784z" fill="#68CCD2" p-id="2734"></path><path d="M446.2592 415.0272A15.36 15.36 0 0 1 434.5344 409.6L329.1136 284.9792a15.36 15.36 0 0 1-3.4816-12.032l29.952-210.8928a15.36 15.36 0 0 1 19.456-12.5952c1.3824 0.4096 140.8512 39.8848 279.1424 0a15.36 15.36 0 0 1 16.5376 5.376c61.44 79.4624 58.2656 111.36 55.9104 119.2448l-0.6144 1.6896-87.04 200.448a15.36 15.36 0 0 1-11.5712 9.0624L448.768 414.72a13.824 13.824 0 0 1-2.5088 0.3072zM357.0176 270.4384l95.3344 112.64 161.4848-26.8288 82.8928-190.5664c0-5.12-3.4304-29.1328-44.2368-83.968-115.7632 30.72-227.1744 11.0592-268.9024 1.4848z" fill="#042A76" p-id="2735"></path><path d="M200.2432 399.6672v541.696a11.8784 11.8784 0 0 0 11.8784 11.8784h599.7568a11.8784 11.8784 0 0 0 11.8784-11.8784V399.6672s-122.88-135.5776-71.68-331.0592a3.5328 3.5328 0 0 0-3.3792-4.4032H658.432s3.8912 236.9024-146.432 236.9024-141.2096-236.9024-141.2096-236.9024H271.36a3.4816 3.4816 0 0 0-3.3792 4.4544C276.48 97.8944 317.44 265.5744 200.2432 399.6672z" fill="#92B705" p-id="2736"></path><path d="M741.7344 125.952a417.3312 417.3312 0 0 0-90.0096 13.2096c-12.032 69.4272-45.7728 161.9456-139.7248 161.9456a111.0016 111.0016 0 0 1-74.0864-26.0608 416.768 416.768 0 0 0 249.4464 678.1952h124.5184a11.8784 11.8784 0 0 0 11.8784-11.8784V399.6672s-99.4304-109.568-82.0224-273.7152z" fill="#B1D952" p-id="2737"></path><path d="M200.2432 841.3184h623.5136v100.0448a11.8784 11.8784 0 0 1-11.8784 11.8784H212.1216a11.8784 11.8784 0 0 1-11.8784-11.8784v-100.0448z" fill="#D2DCFD" p-id="2738"></path><path d="M687.36 953.2416h124.5184a11.8784 11.8784 0 0 0 11.8784-11.8784v-100.0448H467.3024a416.1536 416.1536 0 0 0 220.0576 111.9232z" fill="#FFFFFF" p-id="2739"></path><path d="M200.2432 745.8816h623.5136v95.3856H200.2432z" fill="#FD8F00" p-id="2740"></path><path d="M467.3024 841.3184h356.4544v-95.4368H393.9328a418.3552 418.3552 0 0 0 73.3696 95.4368z" fill="#FDCB50" p-id="2741"></path><path d="M811.8784 968.6016H212.1216a27.2896 27.2896 0 0 1-27.2384-27.2384V399.6672a15.36 15.36 0 0 1 3.7888-10.24C300.032 262.1952 261.9904 103.424 253.2352 72.9088a18.8928 18.8928 0 0 1 3.0208-16.5888 19.0976 19.0976 0 0 1 15.36-7.5264h99.1744a15.36 15.36 0 0 1 15.36 15.9744c0 1.28-4.1984 130.9184 53.8112 191.1296A95.0272 95.0272 0 0 0 512 285.7472 97.28 97.28 0 0 0 585.0112 256c59.392-60.3136 58.112-190.0544 58.0608-191.3344a15.36 15.36 0 0 1 15.36-15.616h90.4704a18.8416 18.8416 0 0 1 18.2272 23.7056c-48.7936 184.6272 66.56 315.5456 67.9936 316.8256a15.36 15.36 0 0 1 3.9936 10.24v541.696a27.2896 27.2896 0 0 1-27.2384 27.0848z m-596.2752-30.72h592.7936v-532.48a387.1232 387.1232 0 0 1-74.5984-325.8368h-60.2624c-1.4848 39.0656-10.8544 141.056-66.56 197.7344A128.3584 128.3584 0 0 1 512 316.4672a126.0032 126.0032 0 0 1-94.2592-39.2704c-54.4768-56.32-61.44-158.3104-62.4128-197.632H286.72C299.1104 133.4272 320.1536 281.6 215.6032 405.4016z" fill="#042A76" p-id="2742"></path></svg>