<?xml version="1.0" standalone="no"?><!DOCTYPE svg PUBLIC "-//W3C//DTD SVG 1.1//EN" "http://www.w3.org/Graphics/SVG/1.1/DTD/svg11.dtd"><svg t="1782561813930" class="icon" viewBox="0 0 1024 1024" version="1.1" xmlns="http://www.w3.org/2000/svg" p-id="2910" xmlns:xlink="http://www.w3.org/1999/xlink" width="200" height="200"><path d="M475.5968 172.9536h72.6528v160.0512H475.5968z" fill="#68CCD2" p-id="2911"></path><path d="M548.2496 348.16H475.5968a15.36 15.36 0 0 1-15.36-15.36V172.9536a15.36 15.36 0 0 1 15.36-15.36h72.6528a15.36 15.36 0 0 1 15.36 15.36V332.8a15.36 15.36 0 0 1-15.36 15.36z m-57.2928-30.72h41.9328V188.3136h-41.9328z" fill="#042A76" p-id="2912"></path><path d="M511.8976 603.136m-353.024 0a353.024 353.024 0 1 0 706.048 0 353.024 353.024 0 1 0-706.048 0Z" fill="#D2DCFD" p-id="2913"></path><path d="M512 250.1632a352.768 352.768 0 0 0-117.76 20.48 434.8928 434.8928 0 0 0 311.1936 628.1216A352.9728 352.9728 0 0 0 512 250.1632z" fill="#FFFFFF" p-id="2914"></path><path d="M511.8976 603.136m-287.0784 0a287.0784 287.0784 0 1 0 574.1568 0 287.0784 287.0784 0 1 0-574.1568 0Z" fill="#92B705" p-id="2915"></path><path d="M798.976 603.136a286.976 286.976 0 0 0-439.3472-243.3024 434.8928 434.8928 0 0 0 253.696 512 287.0784 287.0784 0 0 0 185.6512-268.6976z" fill="#B1D952" p-id="2916"></path><path d="M512 971.52a368.384 368.384 0 1 1 368.64-368.384 368.64 368.64 0 0 1-368.64 368.384z m0-705.9968a337.664 337.664 0 1 0 337.92 337.6128 337.92 337.92 0 0 0-337.92-337.6128z" fill="#042A76" p-id="2917"></path><path d="M511.8976 603.136m-181.3504 0a181.3504 181.3504 0 1 0 362.7008 0 181.3504 181.3504 0 1 0-362.7008 0Z" fill="#D2DCFD" p-id="2918"></path><path d="M512 421.8368a181.2992 181.2992 0 0 0-163.1232 102.0928A433.4592 433.4592 0 0 0 476.16 780.9536a181.3504 181.3504 0 1 0 35.84-359.1168z" fill="#FFFFFF" p-id="2919"></path><path d="M640.3584 670.0032a15.36 15.36 0 0 1-5.7344-1.1264l-128.4096-51.2A15.36 15.36 0 0 1 496.64 603.136V481.6896a15.36 15.36 0 0 1 30.72 0v111.0528l118.784 47.616a15.36 15.36 0 0 1-5.6832 29.6448z" fill="#042A76" p-id="2920"></path><path d="M476.16 65.1264h71.0656a79.104 79.104 0 0 1 79.104 79.104V174.08a21.1968 21.1968 0 0 1-21.1968 21.1968H418.4576A21.1968 21.1968 0 0 1 397.2608 174.08v-29.8496A79.104 79.104 0 0 1 476.16 65.1264z" fill="#FD8F00" p-id="2921"></path><path d="M443.4432 195.072h161.8944a21.1968 21.1968 0 0 0 21.1968-20.992v-29.8496a78.9504 78.9504 0 0 0-35.3792-65.8944 437.248 437.248 0 0 0-147.712 116.736z" fill="#FDCB50" p-id="2922"></path><path d="M605.3376 210.432h-186.88a36.608 36.608 0 0 1-36.5568-36.352v-29.8496A94.6176 94.6176 0 0 1 476.16 49.7664h71.0656a94.5664 94.5664 0 0 1 94.464 94.464V174.08a36.608 36.608 0 0 1-36.352 36.352zM476.16 80.4864a63.8464 63.8464 0 0 0-63.5392 63.744V174.08a5.888 5.888 0 0 0 5.8368 5.888h186.88a5.888 5.888 0 0 0 5.8368-5.888v-29.8496a63.7952 63.7952 0 0 0-63.744-63.744z" fill="#042A76" p-id="2923"></path></svg>