<?xml version="1.0" standalone="no"?><!DOCTYPE svg PUBLIC "-//W3C//DTD SVG 1.1//EN" "http://www.w3.org/Graphics/SVG/1.1/DTD/svg11.dtd"><svg t="1782561766215" class="icon" viewBox="0 0 1024 1024" version="1.1" xmlns="http://www.w3.org/2000/svg" p-id="1440" xmlns:xlink="http://www.w3.org/1999/xlink" width="200" height="200"><path d="M352.4096 236.7488h324.7616a182.272 182.272 0 0 1 182.272 182.272v382.4128a138.24 138.24 0 0 1-138.24 138.24H308.2752a138.24 138.24 0 0 1-138.24-138.24v-382.464a182.272 182.272 0 0 1 182.3744-182.2208z" fill="#92B705" p-id="1441"></path><path d="M680.3456 236.7488H349.2864a179.2 179.2 0 0 0-50.8416 7.3728 427.4688 427.4688 0 0 0 559.2576 581.3248 137.3696 137.3696 0 0 0 1.7408-21.6576V415.8464a179.2 179.2 0 0 0-179.0976-179.0976z" fill="#B1D952" p-id="1442"></path><path d="M170.1888 432.8448h689.2544v351.0784H170.1888z" fill="#FD8F00" p-id="1443"></path><path d="M252.6208 436.6336a426.8032 426.8032 0 0 0 178.3808 347.2896h428.4416V432.8448H252.672c0 1.28-0.0512 2.3552-0.0512 3.7888z" fill="#FDCB50" p-id="1444"></path><path d="M250.9824 81.152m41.472 0l439.0912 0q41.472 0 41.472 41.472l0 72.6528q0 41.472-41.472 41.472l-439.0912 0q-41.472 0-41.472-41.472l0-72.6528q0-41.472 41.472-41.472Z" fill="#FD8F00" p-id="1445"></path><path d="M732.16 81.152H442.624A429.7216 429.7216 0 0 0 302.08 236.7488h430.08a40.96 40.96 0 0 0 40.96-40.96V121.9072a40.96 40.96 0 0 0-40.96-40.7552z" fill="#FDCB50" p-id="1446"></path><path d="M170.1888 415.8464v38.4h689.2544v-38.4a180.736 180.736 0 0 0-1.3824-21.8112H171.52a180.7872 180.7872 0 0 0-1.3312 21.8112z" fill="#D2DCFD" p-id="1447"></path><path d="M859.0848 405.0944v-0.768c0-3.4816-0.5632-6.912-0.9728-10.24H254.72c-1.3824 13.9776-2.0992 28.2112-2.0992 42.5984 0 5.888 0 11.776 0.4096 17.6128h606.4128v-38.4c0-3.6864-0.1024-7.2704-0.3584-10.8032z" fill="#FFFFFF" p-id="1448"></path><path d="M859.4432 803.84v-49.9712H170.1888V803.84c0 3.4816 0 6.8608 0.4096 10.24h688.4352c0.256-3.4304 0.4096-6.8096 0.4096-10.24z" fill="#D2DCFD" p-id="1449"></path><path d="M479.3344 814.08h379.6992c0.256-3.3792 0.4096-6.7584 0.4096-10.24v-49.9712h-465.92A428.1856 428.1856 0 0 0 479.3344 814.08z" fill="#FFFFFF" p-id="1450"></path><path d="M874.2912 405.248a197.6832 197.6832 0 0 0-109.9776-163.84 56.7296 56.7296 0 0 0 24.064-46.08V122.88a56.9344 56.9344 0 0 0-56.8832-56.832H292.4544A56.8832 56.8832 0 0 0 235.52 122.88v72.3968a56.832 56.832 0 0 0 26.4704 47.9744A197.5808 197.5808 0 0 0 155.648 401.1008a30.3104 30.3104 0 0 0-0.8192 6.8608v393.472c0 3.5328 0 7.0656 0.3584 10.5472v2.2016a14.08 14.08 0 0 0 0.4096 3.328 153.6 153.6 0 0 0 152.6784 137.3696h413.0816a153.6 153.6 0 0 0 152.6272-137.4208 17.408 17.408 0 0 0 0.4096-3.2768v-2.2528c0.256-3.4816 0.4096-6.9632 0.4096-10.496V410.9312a34.5088 34.5088 0 0 0-0.512-5.6832zM185.5488 742.4V418.9696v-9.5744H843.776c0 3.1744 0.3072 6.4 0.3072 9.5744V742.4c0 17.5104 0 35.84-0.256 56.32H185.8048c-0.2048-20.48-0.256-38.7072-0.256-56.32zM292.4544 221.3888a26.1632 26.1632 0 0 1-26.112-26.112V122.88a26.1632 26.1632 0 0 1 26.112-26.112h439.04A26.1632 26.1632 0 0 1 757.76 122.88v72.3968a26.1632 26.1632 0 0 1-26.1632 26.112H292.4544z m59.9552 30.72h324.8128A167.168 167.168 0 0 1 839.1168 378.88H190.464a167.2192 167.2192 0 0 1 161.9456-126.7712z m368.9472 672.0512H308.2752A122.88 122.88 0 0 1 188.7744 829.44h652.032a122.88 122.88 0 0 1-119.4496 94.72z" fill="#042A76" p-id="1451"></path><path d="M436.224 702.7712a30.1568 30.1568 0 0 1-26.2144-45.1072l47.1552-82.8416a30.208 30.208 0 0 1 42.6496-10.24l26.0608 16.8448 42.5472-71.68a30.1568 30.1568 0 0 1 51.9168 30.72l-58.5728 98.7648a30.1568 30.1568 0 0 1-42.3424 9.9328l-25.6-16.5376-31.3344 55.04a30.208 30.208 0 0 1-26.2656 15.104z" fill="#FFFFFF" p-id="1452"></path></svg>