<?xml version="1.0" standalone="no"?><!DOCTYPE svg PUBLIC "-//W3C//DTD SVG 1.1//EN" "http://www.w3.org/Graphics/SVG/1.1/DTD/svg11.dtd"><svg t="1782561784879" class="icon" viewBox="0 0 1024 1024" version="1.1" xmlns="http://www.w3.org/2000/svg" p-id="1991" xmlns:xlink="http://www.w3.org/1999/xlink" width="200" height="200"><path d="M304.6912 692.7872a58.8288 58.8288 0 0 1-57.0368-72.8576l61.44-247.9104h-74.24a58.7264 58.7264 0 0 1-51.5584-30.72l-76.8-140.8512a58.7264 58.7264 0 1 1 103.0656-56.32l60.1088 110.4384H384a58.7776 58.7776 0 0 1 56.9856 72.8064l-79.3088 320.768a58.7776 58.7776 0 0 1-56.9856 44.6464z" fill="#92B705" p-id="1992"></path><path d="M373.0432 602.112l67.9424-274.7392a58.624 58.624 0 0 0-39.4752-70.0416 481.9456 481.9456 0 0 0-28.4672 344.7808z" fill="#B1D952" p-id="1993"></path><path d="M304.6912 708.1472a75.4688 75.4688 0 0 1-17.8176-2.2016 74.1376 74.1376 0 0 1-54.1184-89.7024l56.32-228.864H234.8544a74.0864 74.0864 0 0 1-65.024-38.5536l-76.8-140.8512A74.1376 74.1376 0 0 1 122.4192 107.52a73.984 73.984 0 0 1 100.5056 29.4912l55.8592 102.4H384a74.0352 74.0352 0 0 1 71.68 91.648l-79.104 320.768a73.9328 73.9328 0 0 1-71.8848 56.32zM157.8496 129.0752a43.3664 43.3664 0 0 0-37.9904 64.1536l76.8 140.8512a43.4176 43.4176 0 0 0 38.0928 22.5792h74.1888a15.36 15.36 0 0 1 14.8992 19.0464l-61.44 247.9104a43.4688 43.4688 0 0 0 31.6928 52.5312 45.2096 45.2096 0 0 0 10.24 1.28 43.3152 43.3152 0 0 0 42.0864-32.9728l79.616-320.768A43.3664 43.3664 0 0 0 384 269.9264H269.6704A15.36 15.36 0 0 1 256 261.9392L195.9936 151.6544a43.1104 43.1104 0 0 0-25.856-20.7872 44.032 44.032 0 0 0-12.288-1.792zM877.4656 880.1792a15.36 15.36 0 0 1-14.2848-9.7792l-87.6032-223.6928a15.36 15.36 0 0 1 28.6208-11.1616l87.6032 223.6416a15.36 15.36 0 0 1-14.336 20.992zM191.6416 862.4128a15.36 15.36 0 0 1-5.12-0.9216 15.36 15.36 0 0 1-9.2672-19.6096l49.7152-138.496a15.36 15.36 0 1 1 28.8768 10.24l-49.7152 138.24a15.36 15.36 0 0 1-14.4896 10.5472z" fill="#042A76" p-id="1994"></path><path d="M592.3328 256.512h207.5136a77.6704 77.6704 0 0 0 77.6192-77.6704A77.6192 77.6192 0 0 0 778.24 104.2944l-199.3728 57.9584c-53.3504 15.5648-42.1376 94.2592 13.4656 94.2592z" fill="#BC9BF4" p-id="1995"></path><path d="M799.8464 271.872h-207.5136a63.4368 63.4368 0 0 1-17.7152-124.3648l199.2704-57.9584a93.0304 93.0304 0 0 1 118.9376 89.2928 93.1328 93.1328 0 0 1-92.9792 93.0304z m0-155.3408a63.0272 63.0272 0 0 0-17.5616 2.5088L583.168 176.9984a31.488 31.488 0 0 0-23.2448 35.84 31.4368 31.4368 0 0 0 32.4096 28.1088h207.5136a62.3104 62.3104 0 0 0 37.376-112.128 61.696 61.696 0 0 0-37.2224-12.288z" fill="#042A76" p-id="1996"></path><path d="M673.8944 256.512h91.136v186.9824h-91.136z" fill="#FDCB50" p-id="1997"></path><path d="M765.0304 458.8544h-91.136a15.36 15.36 0 0 1-15.36-15.36V256.512a15.36 15.36 0 0 1 15.36-15.36h91.136a15.36 15.36 0 0 1 15.36 15.36v186.9824a15.36 15.36 0 0 1-15.36 15.36z m-75.776-30.72h60.416V271.872h-60.416z" fill="#042A76" p-id="1998"></path><path d="M158.0032 172.1344m-29.3376 0a29.3376 29.3376 0 1 0 58.6752 0 29.3376 29.3376 0 1 0-58.6752 0Z" fill="#FE7DA0" p-id="1999"></path><path d="M357.3248 144.3328H209.4592l30.4128 55.6544h117.4528a27.8528 27.8528 0 0 0 0-55.6544z" fill="#FDCB50" p-id="2000"></path><path d="M673.8944 384.7168A180.5824 180.5824 0 0 0 593.92 403.2512c-2.4576 1.1776-4.8128 2.4064-7.168 3.6864l-370.2784 191.232a79.1552 79.1552 0 0 0 33.6384 150.8864l423.7312-0.768a181.8624 181.8624 0 1 0 0-363.52z" fill="#28A2CC" p-id="2001"></path><path d="M673.8944 384.7168A180.5824 180.5824 0 0 0 593.92 403.2512c-2.4576 1.1776-4.8128 2.4064-7.168 3.6864l-229.5296 118.5792A477.0304 477.0304 0 0 0 445.44 748.8l228.5056-0.4096a181.8624 181.8624 0 1 0 0-363.52z" fill="#68CCD2" p-id="2002"></path><path d="M357.3248 215.3472H239.872a15.36 15.36 0 1 1 0-30.72h117.4528a12.4928 12.4928 0 0 0 0-24.9344H209.4592a15.36 15.36 0 0 1 0-30.72h147.8656a43.2128 43.2128 0 0 1 0 86.3744z" fill="#042A76" p-id="2003"></path><path d="M673.8944 566.528m-105.6256 0a105.6256 105.6256 0 1 0 211.2512 0 105.6256 105.6256 0 1 0-211.2512 0Z" fill="#FFFFFF" p-id="2004"></path><path d="M673.8944 566.528m-42.0864 0a42.0864 42.0864 0 1 0 84.1728 0 42.0864 42.0864 0 1 0-84.1728 0Z" fill="#FE7DA0" p-id="2005"></path><path d="M551.2704 704.9216H473.9072a15.36 15.36 0 0 1 0-30.72h71.0144l118.1184-118.1184a15.36 15.36 0 1 1 21.76 21.7088l-122.88 122.88a15.36 15.36 0 0 1-10.6496 4.2496z" fill="#042A76" p-id="2006"></path><path d="M250.2144 764.5184a94.5152 94.5152 0 0 1-41.728-179.2 6.0416 6.0416 0 0 1 0.9728-0.5632l370.2272-191.232c2.2528-1.2288 4.8128-2.56 7.424-3.84a195.1744 195.1744 0 0 1 87.04-20.1216 197.2224 197.2224 0 1 1 0 394.24z m-25.344-153.6a12.4416 12.4416 0 0 1-1.792 1.024 63.8464 63.8464 0 0 0 27.0848 121.6512l423.7312-0.768a166.5024 166.5024 0 1 0 0-332.8 164.6592 164.6592 0 0 0-73.216 16.9472c-2.2016 1.1264-4.4032 2.2016-6.5536 3.3792z" fill="#042A76" p-id="2007"></path><path d="M125.952 825.7536m43.4176 0l712.0384 0q43.4176 0 43.4176 43.4176l0 3.6864q0 43.4176-43.4176 43.4176l-712.0384 0q-43.4176 0-43.4176-43.4176l0-3.6864q0-43.4176 43.4176-43.4176Z" fill="#FD8F00" p-id="2008"></path><path d="M881.408 825.7536h-366.1824A479.8976 479.8976 0 0 0 665.6 916.48h215.9104a43.4176 43.4176 0 0 0 43.4176-43.4176v-3.6864a43.4176 43.4176 0 0 0-43.52-43.6224z" fill="#FDCB50" p-id="2009"></path><path d="M881.408 931.84H169.3696a58.8288 58.8288 0 0 1-58.7776-58.9824v-3.6864a58.8288 58.8288 0 0 1 58.7776-58.7776h712.0384a58.8288 58.8288 0 0 1 58.7776 58.7776v3.6864A58.8288 58.8288 0 0 1 881.408 931.84zM169.3696 841.1136a28.1088 28.1088 0 0 0-28.0576 28.0576v3.6864a28.1088 28.1088 0 0 0 28.0576 28.2624h712.0384a28.1088 28.1088 0 0 0 28.0576-28.0576v-3.6864a28.1088 28.1088 0 0 0-28.0576-28.0576z" fill="#042A76" p-id="2010"></path></svg>